<svg width="26" height="26" viewBox="0 0 26 26" fill="none" xmlns="http://www.w3.org/2000/svg">
<path d="M19.3597 23.6927C19.0239 23.6927 18.6881 23.6061 18.3847 23.4219L14.0406 20.8435C13.5856 20.8327 13.1306 20.8002 12.6972 20.7352C12.4047 20.6919 12.1556 20.4969 12.0472 20.2152C11.9389 19.9335 11.9931 19.6302 12.1881 19.4027C12.9031 18.5685 13.2714 17.5719 13.2714 16.5102C13.2714 13.8885 10.9639 11.7544 8.12557 11.7544C7.0639 11.7544 6.04556 12.0469 5.18973 12.6102C4.9514 12.7619 4.6589 12.7836 4.3989 12.6644C4.14973 12.5452 3.96558 12.3069 3.93308 12.0252C3.90058 11.7219 3.87891 11.4186 3.87891 11.1044C3.87891 5.73106 8.53724 1.36523 14.2572 1.36523C19.9772 1.36523 24.6356 5.73106 24.6356 11.1044C24.6356 14.0511 23.2706 16.7594 20.8656 18.6119L21.2339 21.5586C21.3206 22.2953 20.9956 22.9886 20.3781 23.3894C20.0747 23.5844 19.7172 23.6927 19.3597 23.6927ZM14.2464 19.2077C14.3981 19.1969 14.5497 19.2403 14.6797 19.3269L19.2189 22.0244C19.3381 22.1002 19.4356 22.0677 19.5006 22.0244C19.5547 21.9919 19.6414 21.9052 19.6197 21.7536L19.1972 18.3302C19.1647 18.0269 19.2947 17.7344 19.5331 17.5611C21.7431 16.0119 23.0106 13.6502 23.0106 11.0827C23.0106 6.60854 19.0889 2.96855 14.2572 2.96855C9.60974 2.96855 5.7964 6.34859 5.51473 10.5953C6.32723 10.2811 7.20474 10.1077 8.11474 10.1077C11.8522 10.1077 14.8856 12.9677 14.8856 16.4885C14.8964 17.4419 14.6689 18.3627 14.2464 19.2077Z" fill="white"/>
<path d="M4.96191 24.6456C4.68024 24.6456 4.4094 24.5698 4.16024 24.4073C3.67274 24.0932 3.41275 23.5515 3.47775 22.9773L3.69441 21.3089C2.23191 20.1173 1.36523 18.3514 1.36523 16.4989C1.36523 14.3864 2.47025 12.4148 4.32275 11.234C5.43858 10.5081 6.76023 10.1182 8.13607 10.1182C11.8736 10.1182 14.9069 12.9781 14.9069 16.4989C14.9069 17.9289 14.3869 19.3373 13.4336 20.4531C12.2094 21.9373 10.3786 22.804 8.36358 22.869L5.72024 24.4398C5.48191 24.5806 5.22191 24.6456 4.96191 24.6456ZM8.12524 11.7432C7.06357 11.7432 6.04523 12.0356 5.1894 12.599C3.80273 13.4873 2.97941 14.9389 2.97941 16.4989C2.97941 18.0048 3.71608 19.3807 5.01608 20.269C5.26525 20.4423 5.39524 20.7348 5.36274 21.0381L5.1244 22.8906L7.71357 21.3523C7.84357 21.2765 7.98441 21.2331 8.12524 21.2331C9.71774 21.2331 11.2236 20.5507 12.1769 19.3915C12.8919 18.5465 13.2711 17.5498 13.2711 16.4881C13.2711 13.8773 10.9636 11.7432 8.12524 11.7432Z" fill="white"/>
</svg>
