<svg width="26" height="26" viewBox="0 0 26 26" fill="none" xmlns="http://www.w3.org/2000/svg">
<path d="M16.5102 24.1257H16.3694C11.5594 24.1257 9.24105 22.2299 8.84022 17.9832C8.79689 17.539 9.12189 17.1382 9.57689 17.0949C10.0102 17.0515 10.4219 17.3874 10.4652 17.8315C10.7794 21.2332 12.3827 22.5007 16.3802 22.5007H16.5211C20.9302 22.5007 22.4902 20.9407 22.4902 16.5315V9.46819C22.4902 5.05902 20.9302 3.49902 16.5211 3.49902H16.3802C12.3611 3.49902 10.7577 4.78819 10.4652 8.25486C10.4111 8.69902 10.0319 9.03486 9.57689 8.99152C9.12189 8.95902 8.79689 8.55819 8.82939 8.11402C9.19772 3.80236 11.5269 1.87402 16.3694 1.87402H16.5102C21.8294 1.87402 24.1044 4.14902 24.1044 9.46819V16.5315C24.1044 21.8507 21.8294 24.1257 16.5102 24.1257Z" fill="white"/>
<path d="M16.2502 13.8125H3.92187C3.47771 13.8125 3.10938 13.4442 3.10938 13C3.10938 12.5558 3.47771 12.1875 3.92187 12.1875H16.2502C16.6944 12.1875 17.0627 12.5558 17.0627 13C17.0627 13.4442 16.6944 13.8125 16.2502 13.8125Z" fill="white"/>
<path d="M6.3374 17.4421C6.13156 17.4421 5.92573 17.3663 5.76323 17.2038L2.13406 13.5746C1.8199 13.2605 1.8199 12.7405 2.13406 12.4263L5.76323 8.79715C6.0774 8.48298 6.5974 8.48298 6.91156 8.79715C7.22573 9.11132 7.22573 9.63132 6.91156 9.94548L3.85656 13.0005L6.91156 16.0555C7.22573 16.3696 7.22573 16.8896 6.91156 17.2038C6.7599 17.3663 6.54323 17.4421 6.3374 17.4421Z" fill="white"/>
</svg>
