<svg width="26" height="26" viewBox="0 0 26 26" fill="none" xmlns="http://www.w3.org/2000/svg">
<path d="M13.0002 24.646C12.7402 24.646 12.4802 24.6136 12.231 24.5377C6.6085 22.9886 2.53516 17.7344 2.53516 12.036V7.28017C2.53516 6.06684 3.41266 4.75606 4.53933 4.29023L10.5735 1.8202C12.1443 1.18103 13.8668 1.18103 15.4268 1.8202L21.461 4.29023C22.5877 4.75606 23.4652 6.06684 23.4652 7.28017V12.036C23.4652 17.7235 19.381 22.9777 13.7693 24.5377C13.5202 24.6136 13.2602 24.646 13.0002 24.646ZM13.0002 2.97937C12.3827 2.97937 11.776 3.09856 11.191 3.33689L5.15684 5.80685C4.63684 6.02352 4.16016 6.72768 4.16016 7.29102V12.0469C4.16016 17.0194 7.73516 21.6127 12.6643 22.9777C12.881 23.0427 13.1193 23.0427 13.336 22.9777C18.2652 21.6127 21.8402 17.0194 21.8402 12.0469V7.29102C21.8402 6.72768 21.3635 6.02352 20.8435 5.80685L14.8093 3.33689C14.2243 3.09856 13.6177 2.97937 13.0002 2.97937Z" fill="white"/>
</svg>
