<svg width="26" height="26" viewBox="0 0 26 26" fill="none" xmlns="http://www.w3.org/2000/svg">
<path d="M21.1253 13.5413C21.1253 12.0463 22.3387 10.833 23.8337 10.833V9.74967C23.8337 5.41634 22.7503 4.33301 18.417 4.33301H7.58366C3.25033 4.33301 2.16699 5.41634 2.16699 9.74967V10.2913C3.66199 10.2913 4.87533 11.5047 4.87533 12.9997C4.87533 14.4947 3.66199 15.708 2.16699 15.708V16.2497C2.16699 20.583 3.25033 21.6663 7.58366 21.6663H18.417C22.7503 21.6663 23.8337 20.583 23.8337 16.2497C22.3387 16.2497 21.1253 15.0363 21.1253 13.5413Z" stroke="white" stroke-width="1.5" stroke-linecap="round" stroke-linejoin="round"/>
<path d="M10.833 4.33301L10.833 21.6663" stroke="white" stroke-width="1.5" stroke-linecap="round" stroke-linejoin="round" stroke-dasharray="5 5"/>
</svg>
