<svg width="142" height="26" viewBox="0 0 142 26" fill="none" xmlns="http://www.w3.org/2000/svg">
<path d="M2.16699 9.21387H23.8337" stroke="white" stroke-width="1.5" stroke-miterlimit="10" stroke-linecap="round" stroke-linejoin="round"/>
<path d="M6.5 17.8809H8.66667" stroke="white" stroke-width="1.5" stroke-miterlimit="10" stroke-linecap="round" stroke-linejoin="round"/>
<path d="M11.375 17.8809H15.7083" stroke="white" stroke-width="1.5" stroke-miterlimit="10" stroke-linecap="round" stroke-linejoin="round"/>
<path d="M6.97699 3.79688H19.0128C22.8695 3.79688 23.8337 4.75021 23.8337 8.55271V17.4469C23.8337 21.2494 22.8695 22.2027 19.0237 22.2027H6.97699C3.13116 22.2135 2.16699 21.2602 2.16699 17.4577V8.55271C2.16699 4.75021 3.13116 3.79688 6.97699 3.79688Z" stroke="white" stroke-width="1.5" stroke-linecap="round" stroke-linejoin="round"/>
<path d="M52.28 20V6H57.52C58.7067 6 59.7267 6.19333 60.58 6.58C61.4333 6.95333 62.0867 7.5 62.54 8.22C63.0067 8.92667 63.24 9.78667 63.24 10.8C63.24 11.7867 63.0067 12.64 62.54 13.36C62.0867 14.0667 61.4333 14.6133 60.58 15C59.7267 15.3867 58.7067 15.58 57.52 15.58H53.1L53.76 14.88V20H52.28ZM53.76 15L53.1 14.28H57.48C58.88 14.28 59.94 13.98 60.66 13.38C61.3933 12.7667 61.76 11.9067 61.76 10.8C61.76 9.68 61.3933 8.81333 60.66 8.2C59.94 7.58667 58.88 7.28 57.48 7.28H53.1L53.76 6.58V15ZM72.6225 20V17.68L72.5625 17.3V13.42C72.5625 12.5267 72.3092 11.84 71.8025 11.36C71.3092 10.88 70.5692 10.64 69.5825 10.64C68.9025 10.64 68.2558 10.7533 67.6425 10.98C67.0292 11.2067 66.5092 11.5067 66.0825 11.88L65.4425 10.82C65.9758 10.3667 66.6158 10.02 67.3625 9.78C68.1092 9.52667 68.8958 9.4 69.7225 9.4C71.0825 9.4 72.1292 9.74 72.8625 10.42C73.6092 11.0867 73.9825 12.1067 73.9825 13.48V20H72.6225ZM69.0025 20.1C68.2158 20.1 67.5292 19.9733 66.9425 19.72C66.3692 19.4533 65.9292 19.0933 65.6225 18.64C65.3158 18.1733 65.1625 17.64 65.1625 17.04C65.1625 16.4933 65.2892 16 65.5425 15.56C65.8092 15.1067 66.2358 14.7467 66.8225 14.48C67.4225 14.2 68.2225 14.06 69.2225 14.06H72.8425V15.12H69.2625C68.2492 15.12 67.5425 15.3 67.1425 15.66C66.7558 16.02 66.5625 16.4667 66.5625 17C66.5625 17.6 66.7958 18.08 67.2625 18.44C67.7292 18.8 68.3825 18.98 69.2225 18.98C70.0225 18.98 70.7092 18.8 71.2825 18.44C71.8692 18.0667 72.2958 17.5333 72.5625 16.84L72.8825 17.82C72.6158 18.5133 72.1492 19.0667 71.4825 19.48C70.8292 19.8933 70.0025 20.1 69.0025 20.1ZM77.7241 23.98C77.2307 23.98 76.7574 23.9 76.3041 23.74C75.8641 23.58 75.4841 23.34 75.1641 23.02L75.8241 21.96C76.0907 22.2133 76.3774 22.4067 76.6841 22.54C77.0041 22.6867 77.3574 22.76 77.7441 22.76C78.2107 22.76 78.6107 22.6267 78.9441 22.36C79.2907 22.1067 79.6174 21.6533 79.9241 21L80.6041 19.46L80.7641 19.24L85.0841 9.5H86.4841L81.2241 21.26C80.9307 21.94 80.6041 22.48 80.2441 22.88C79.8974 23.28 79.5174 23.56 79.1041 23.72C78.6907 23.8933 78.2307 23.98 77.7241 23.98ZM80.5241 20.3L75.6841 9.5H77.1641L81.4441 19.14L80.5241 20.3ZM101.604 9.4C102.457 9.4 103.197 9.56667 103.824 9.9C104.464 10.22 104.957 10.7133 105.304 11.38C105.664 12.0467 105.844 12.8867 105.844 13.9V20H104.424V14.04C104.424 12.9333 104.157 12.1 103.624 11.54C103.104 10.9667 102.364 10.68 101.404 10.68C100.684 10.68 100.057 10.8333 99.5239 11.14C99.0039 11.4333 98.5972 11.8667 98.3039 12.44C98.0239 13 97.8839 13.68 97.8839 14.48V20H96.4639V14.04C96.4639 12.9333 96.1972 12.1 95.6639 11.54C95.1306 10.9667 94.3839 10.68 93.4239 10.68C92.7172 10.68 92.0972 10.8333 91.5639 11.14C91.0306 11.4333 90.6172 11.8667 90.3239 12.44C90.0439 13 89.9039 13.68 89.9039 14.48V20H88.4839V9.5H89.8439V12.34L89.6239 11.84C89.9439 11.08 90.4572 10.4867 91.1639 10.06C91.8839 9.62 92.7306 9.4 93.7039 9.4C94.7306 9.4 95.6039 9.66 96.3239 10.18C97.0439 10.6867 97.5106 11.4533 97.7239 12.48L97.1639 12.26C97.4706 11.4067 98.0106 10.72 98.7839 10.2C99.5706 9.66667 100.511 9.4 101.604 9.4ZM114.155 20.1C113.062 20.1 112.102 19.8733 111.275 19.42C110.448 18.9533 109.802 18.32 109.335 17.52C108.868 16.7067 108.635 15.78 108.635 14.74C108.635 13.7 108.855 12.78 109.295 11.98C109.748 11.18 110.362 10.5533 111.135 10.1C111.922 9.63333 112.802 9.4 113.775 9.4C114.762 9.4 115.635 9.62667 116.395 10.08C117.168 10.52 117.775 11.1467 118.215 11.96C118.655 12.76 118.875 13.6867 118.875 14.74C118.875 14.8067 118.868 14.88 118.855 14.96C118.855 15.0267 118.855 15.1 118.855 15.18H109.715V14.12H118.095L117.535 14.54C117.535 13.78 117.368 13.1067 117.035 12.52C116.715 11.92 116.275 11.4533 115.715 11.12C115.155 10.7867 114.508 10.62 113.775 10.62C113.055 10.62 112.408 10.7867 111.835 11.12C111.262 11.4533 110.815 11.92 110.495 12.52C110.175 13.12 110.015 13.8067 110.015 14.58V14.8C110.015 15.6 110.188 16.3067 110.535 16.92C110.895 17.52 111.388 17.9933 112.015 18.34C112.655 18.6733 113.382 18.84 114.195 18.84C114.835 18.84 115.428 18.7267 115.975 18.5C116.535 18.2733 117.015 17.9267 117.415 17.46L118.215 18.38C117.748 18.94 117.162 19.3667 116.455 19.66C115.762 19.9533 114.995 20.1 114.155 20.1ZM127.125 9.4C127.978 9.4 128.725 9.56667 129.365 9.9C130.018 10.22 130.525 10.7133 130.885 11.38C131.258 12.0467 131.445 12.8867 131.445 13.9V20H130.025V14.04C130.025 12.9333 129.745 12.1 129.185 11.54C128.638 10.9667 127.865 10.68 126.865 10.68C126.118 10.68 125.465 10.8333 124.905 11.14C124.358 11.4333 123.932 11.8667 123.625 12.44C123.332 13 123.185 13.68 123.185 14.48V20H121.765V9.5H123.125V12.38L122.905 11.84C123.238 11.08 123.772 10.4867 124.505 10.06C125.238 9.62 126.112 9.4 127.125 9.4ZM138.601 20.1C137.614 20.1 136.854 19.8333 136.321 19.3C135.787 18.7667 135.521 18.0133 135.521 17.04V7.18H136.941V16.96C136.941 17.5733 137.094 18.0467 137.401 18.38C137.721 18.7133 138.174 18.88 138.761 18.88C139.387 18.88 139.907 18.7 140.321 18.34L140.821 19.36C140.541 19.6133 140.201 19.8 139.801 19.92C139.414 20.04 139.014 20.1 138.601 20.1ZM133.641 10.68V9.5H140.141V10.68H133.641Z" fill="white"/>
</svg>
